<?xml version="1.0" encoding="utf-8"?>
<!-- Generator: Adobe Illustrator 19.0.0, SVG Export Plug-In . SVG Version: 6.00 Build 0)  -->
<svg version="1.1" id="Objects" xmlns="http://www.w3.org/2000/svg" xmlns:xlink="http://www.w3.org/1999/xlink" x="0px" y="0px"
	 viewBox="800 675 290 210" xml:space="preserve">
<style type="text/css">
	.st1{fill-rule:evenodd;clip-rule:evenodd;fill:white;}
	.st2{fill:white;}
	.st3{font-family:'NexaLight';}
	.st22{font-size:40.6842px;}
	.st23{letter-spacing:4;}
	.st24{stroke:#FFFFFF;stroke-width:4.6834;stroke-miterlimit:10;}
</style>
<g>
	<g>
		<path class="st1" d="M881.5,805.4c1.6,1.9,3.5,3.5,5.3,5.3c0.6,0.6,1.2,1.4,1.6,2.2c0.2,0.5,0.5,1,0.8,1.4
			c1.6-0.1,3.3-0.2,4.9-0.2c6-0.2,12,0,18,0.5c3.9-0.1,7.9-0.2,11.8-0.3c0.3-1.3,0.6-2.6,1-3.9c0.1-0.5,0.3-1,1.1-0.5
			c1.2,0.8,2.4,1.5,3.8,2c0.7,0.3,1.1,0.5,1.2,1.2c0,0,0.1,0.1,0.3,0.1v-0.7c0.1,0,0.2-0.1,0.3-0.1c0.1,0.3,0.3,0.6,0.4,1
			c0.1-0.2,0.2-0.4,0.4-0.7c0.7,0.4,1.3,0.8,2,1.1c0,0,0-0.1,0.1-0.1c0.1,0.1,0.3,0.2,0.4,0.2c0.3,0,0.5,0,0.8,0c0,0,0,0,0.1,0
			c0,0,0.1,0,0.1,0c0.4,0,0.9,0,1.3,0c17.1-0.3,34-1,51-2.8c3.1-0.3,6.1-0.6,9.2-0.9c0.2-0.3,0.5-0.6,0.7-1c1.8-3.1,3.6-6.3,5.3-9.5
			c1.4-2.7,2.9-5.3,4-8.1c1.3-3.3,1.8-6.8,2.9-10.1c0.9-2.8,1.2-5.8,1.4-8.8c0.2-2.8,0.1-5.7,0.1-8.5c0-4-0.1-7.9-0.4-11.9
			c-0.1-1.9-0.6-3.9-1.3-5.7c-0.8-2.1-1.7-4.1-1.7-6.4c0.1-5.3,0-10.6,0.1-15.9c0-2.2,0.3-4.3,0.4-6.5c0-2.1-0.1-4.2-0.1-6.3
			c0-0.4,0.3-1,0.6-1.1c0.4-0.2,1,0.1,1.4-0.1c1-0.4,1.8-1.1,2.8-1.6c1.9-0.9,3.2-2.4,4.5-4.1c0.3-0.4,0.4-0.6,0.3-1.1
			c-0.2-0.7,0.1-1.6-0.9-2c0.4-1.7-1.3-1.7-2.1-2.2c-1.4-0.9-3.1-1.3-4.7-1.8c-0.6-0.2-0.5-0.5-0.4-1c0.1-1.1,0.4-2.5-0.1-3.4
			c-1.1-2-2.5-3.8-4.8-4.7c-1.4-0.6-2.5-1.8-3.9-2.2c-1.3-0.4-2.7-0.4-4.1-0.9c-1.2-0.5-2.4-0.7-3.7-1c-0.7-0.2-1-0.6-1-1.3
			c0-1.1,0-2.2,0-3.3c0-1-0.7-1.5-1.6-1.1c-0.9,0.4-1.8,0.9-2.6,1.6c-1.3,1.1-2.5,2.2-3.7,3.4c-0.8,0.8-1.4,1.7-2.3,2.5
			c-0.9,0.9-2,1.6-3,2.4c-2.8,2.5-4.5,5.6-4.8,9.3c-0.4,4.8-0.5,9.7-0.5,14.6c0,2.1,0.3,4.2,0.5,6.4c0.3,3.6,0.7,7.2,1,10.9
			c0.2,2.2,0.4,4.3,0.5,6.5c0.2,3.2,0.4,6.5,0.5,9.7c0.1,3.2-0.6,6.4-1.9,9.3c-0.8,1.8-2.9,3.3-4.8,3c-1.2-0.2-2.4-0.4-3.6-0.7
			c-1.9-0.5-3.8-1-5.7-1.5c-3.9-1-7.7-2.6-11.8-2.6c-2.4,0-4.8-0.3-7.2-0.4c-2.5-0.1-4.9-0.2-7.4-0.3c-0.6,0-1.3,0-1.9-0.1
			c-1.1-0.1-2.2-0.2-3.3-0.3c-1.1-0.1-2.3-0.1-3.4-0.1c-1.1,0-2.1,0-3.2,0.1c-2.4,0.2-4.9,0.5-7.3,0.9c-3.2,0.5-6.3,1-9.4,1.7
			c-1.7,0.4-3.4,1.2-5.1,1.9c-1.2,0.5-2.4,0.9-3.4,1.5c-1.7,0.9-3.2,2-4.9,3c-1.5,0.9-3.2,1.4-4.4,2.5c-1.8,1.7-3.3,3.8-4.9,5.7
			c-0.5,0.6-0.6,1.4-1.1,2c-1.2,1.6-2.4,3.2-3.6,4.8c-1.5,2-2.3,4.3-2.3,6.8c-0.1,3.8,0,7.6,0.9,11.4
			C877.4,798.7,879,802.3,881.5,805.4z"/>
	</g>
	<text transform="matrix(1 0 0 1 945 880.0371)" class="st2 st3 st22 st23">GAMES</text>
	<path class="st24" d="M844.3,799.3c-1.6-6-2.4-8.2-4.7-10.4c-2.3-2.2-5.4-3.4-8.7-3.4c-3.3,0-6.4,1.2-8.6,3.4
		c-2.3,2.2-3.2,4.4-4.7,10.4l-12.2,45.6h15.4l3.9-14.5h12.7l3.9,14.5h15.4L844.3,799.3z M830.9,806.7l2.4,9.1h-4.9L830.9,806.7z"/>
	<g>
		<path class="st24" d="M868.6,830.3c0-0.5,0-1.1,0-1.6V786h-14.9v42.7c0,4,0,9,4.6,13c3.8,3.2,8,3.2,11.7,3.2h19v-14.6h-19
			C869.6,830.3,869.1,830.3,868.6,830.3z"/>
		<path class="st24" d="M929.2,791.3c-5.9-5.3-12.6-5.3-17.9-5.3c-2.8,0-7,0-10.8,3.2c-4.6,4-4.6,9-4.6,13v42.7h14.9v-17.5
			c6,0,12.8-0.2,18.4-5.3c4.2-3.7,6.5-9.3,6.5-15.4C935.8,800.6,933.4,795,929.2,791.3z M910.8,802.2c0-0.5,0-1.1,0-1.6
			c5.1,0,6.8,0.1,8.3,1.4c1.1,1,1.8,2.7,1.8,4.7c0,2-0.6,3.7-1.8,4.7c-1.4,1.3-3.6,1.4-8.3,1.4V802.2z"/>
		<path class="st24" d="M969.6,788.9c-2.3-2.1-5.4-3.4-8.7-3.4c-3.2,0-6.4,1.2-8.6,3.4c-2.3,2.2-3.2,4.4-4.7,10.4l-12.2,45.6h15.4
			l3.9-14.5h12.7l3.9,14.5h15.3l-12.2-45.6C972.7,793.3,971.8,791.1,969.6,788.9z M960.9,806.7l2.4,9.1h-4.9L960.9,806.7z"/>
		<path class="st24" d="M1017.7,828c-1.8,1.7-4.6,2.7-7.3,2.7c-2.2,0-4-0.7-4.9-1.9c-1.6-2.1-1.6-4.5-1.6-13.4
			c0-8.9,0.1-11.4,1.6-13.4c1-1.2,2.7-1.9,4.9-1.9c2.5,0,5,0.9,6.8,2.4l3.7,3.1l8.9-11.6l-3.5-2.9c-4.4-3.6-10.2-5.6-16-5.6
			c-7,0-12.9,2.7-16.9,7.8c-4.5,5.9-4.5,12-4.5,22.1c0,10.1,0,16.2,4.6,22.1c3.9,5,9.9,7.7,16.8,7.7c6.4,0,12.4-2.2,16.9-6.2l3.4-3
			l-9.4-11.4L1017.7,828z"/>
		<path class="st24" d="M1071.5,799.3c-1.6-6-2.4-8.2-4.7-10.4c-2.3-2.1-5.4-3.4-8.7-3.4c-3.3,0-6.4,1.2-8.6,3.4
			c-2.3,2.2-3.2,4.4-4.7,10.4l-12.2,45.6h15.4l3.9-14.5h12.7l3.9,14.5h15.4L1071.5,799.3z M1058.2,806.7l2.4,9.1h-4.9L1058.2,806.7z
			"/>
	</g>
</g>
</svg>
